<svg width="362" height="39" viewBox="0 0 362 39" fill="none" xmlns="http://www.w3.org/2000/svg">
<path d="M2.02 0.162598H0.5V38.1626H2.02V0.162598Z" fill="#4CD46B" fill-opacity="0.25"/>
<path d="M3.53979 0.162598H2.77979V38.1626H3.53979V0.162598Z" fill="#4CD46B" fill-opacity="0.25"/>
<path d="M5.82006 0.162598H5.06006V38.1626H5.82006V0.162598Z" fill="#4CD46B" fill-opacity="0.25"/>
<path d="M9.61986 0.162598H8.85986V38.1626H9.61986V0.162598Z" fill="#4CD46B" fill-opacity="0.25"/>
<path d="M12.6601 0.162598H11.1401V38.1626H12.6601V0.162598Z" fill="#4CD46B" fill-opacity="0.25"/>
<path d="M16.4602 0.162598H15.7002V38.1626H16.4602V0.162598Z" fill="#4CD46B" fill-opacity="0.25"/>
<path d="M17.9802 0.162598H17.2202V38.1626H17.9802V0.162598Z" fill="#4CD46B" fill-opacity="0.25"/>
<path d="M22.54 0.162598H19.5V38.1626H22.54V0.162598Z" fill="#4CD46B" fill-opacity="0.25"/>
<path d="M24.0598 0.162598H23.2998V38.1626H24.0598V0.162598Z" fill="#4CD46B" fill-opacity="0.25"/>
<path d="M26.3401 0.162598H25.5801V38.1626H26.3401V0.162598Z" fill="#4CD46B" fill-opacity="0.25"/>
<path d="M30.8999 0.162598H27.8599V38.1626H30.8999V0.162598Z" fill="#4CD46B" fill-opacity="0.25"/>
<path d="M32.4202 0.162598H31.6602V38.1626H32.4202V0.162598Z" fill="#4CD46B" fill-opacity="0.25"/>
<path d="M34.6999 0.162598H33.9399V38.1626H34.6999V0.162598Z" fill="#4CD46B" fill-opacity="0.25"/>
<path d="M36.22 0.162598H35.46V38.1626H36.22V0.162598Z" fill="#4CD46B" fill-opacity="0.25"/>
<path d="M40.7802 0.162598H37.7402V38.1626H40.7802V0.162598Z" fill="#4CD46B" fill-opacity="0.25"/>
<path d="M43.0603 0.162598H42.3003V38.1626H43.0603V0.162598Z" fill="#4CD46B" fill-opacity="0.25"/>
<path d="M46.8603 0.162598H43.8203V38.1626H46.8603V0.162598Z" fill="#4CD46B" fill-opacity="0.25"/>
<path d="M49.1399 0.162598H48.3799V38.1626H49.1399V0.162598Z" fill="#4CD46B" fill-opacity="0.25"/>
<path d="M52.9402 0.162598H50.6602V38.1626H52.9402V0.162598Z" fill="#4CD46B" fill-opacity="0.25"/>
<path d="M55.22 0.162598H54.46V38.1626H55.22V0.162598Z" fill="#4CD46B" fill-opacity="0.25"/>
<path d="M58.2597 0.162598H56.7397V38.1626H58.2597V0.162598Z" fill="#4CD46B" fill-opacity="0.25"/>
<path d="M59.78 0.162598H59.02V38.1626H59.78V0.162598Z" fill="#4CD46B" fill-opacity="0.25"/>
<path d="M62.82 0.162598H60.54V38.1626H62.82V0.162598Z" fill="#4CD46B" fill-opacity="0.25"/>
<path d="M65.8598 0.162598H64.3398V38.1626H65.8598V0.162598Z" fill="#4CD46B" fill-opacity="0.25"/>
<path d="M68.1399 0.162598H67.3799V38.1626H68.1399V0.162598Z" fill="#4CD46B" fill-opacity="0.25"/>
<path d="M71.1799 0.162598H68.8999V38.1626H71.1799V0.162598Z" fill="#4CD46B" fill-opacity="0.25"/>
<path d="M74.2202 0.162598H72.7002V38.1626H74.2202V0.162598Z" fill="#4CD46B" fill-opacity="0.25"/>
<path d="M78.7797 0.162598H75.7397V38.1626H78.7797V0.162598Z" fill="#4CD46B" fill-opacity="0.25"/>
<path d="M81.0598 0.162598H80.2998V38.1626H81.0598V0.162598Z" fill="#4CD46B" fill-opacity="0.25"/>
<path d="M82.5798 0.162598H81.8198V38.1626H82.5798V0.162598Z" fill="#4CD46B" fill-opacity="0.25"/>
<path d="M87.1401 0.162598H84.1001V38.1626H87.1401V0.162598Z" fill="#4CD46B" fill-opacity="0.25"/>
<path d="M89.4202 0.162598H88.6602V38.1626H89.4202V0.162598Z" fill="#4CD46B" fill-opacity="0.25"/>
<path d="M90.9402 0.162598H90.1802V38.1626H90.9402V0.162598Z" fill="#4CD46B" fill-opacity="0.25"/>
<path d="M95.5 0.162598H92.46V38.1626H95.5V0.162598Z" fill="#4CD46B" fill-opacity="0.25"/>
<path d="M97.78 0.162598H97.02V38.1626H97.78V0.162598Z" fill="#4CD46B" fill-opacity="0.25"/>
<path d="M99.3 0.162598H98.54V38.1626H99.3V0.162598Z" fill="#4CD46B" fill-opacity="0.25"/>
<path d="M101.58 0.162598H100.82V38.1626H101.58V0.162598Z" fill="#4CD46B" fill-opacity="0.25"/>
<path d="M104.62 0.162598H103.1V38.1626H104.62V0.162598Z" fill="#4CD46B" fill-opacity="0.25"/>
<path d="M108.42 0.162598H106.14V38.1626H108.42V0.162598Z" fill="#4CD46B" fill-opacity="0.25"/>
<path d="M110.7 0.162598H109.18V38.1626H110.7V0.162598Z" fill="#4CD46B" fill-opacity="0.25"/>
<path d="M112.98 0.162598H112.22V38.1626H112.98V0.162598Z" fill="#4CD46B" fill-opacity="0.25"/>
<path d="M114.5 0.162598H113.74V38.1626H114.5V0.162598Z" fill="#4CD46B" fill-opacity="0.25"/>
<path d="M118.3 0.162598H117.54V38.1626H118.3V0.162598Z" fill="#4CD46B" fill-opacity="0.25"/>
<path d="M122.86 0.162598H121.34V38.1626H122.86V0.162598Z" fill="#4CD46B" fill-opacity="0.25"/>
<path d="M124.38 0.162598H123.62V38.1626H124.38V0.162598Z" fill="#4CD46B" fill-opacity="0.25"/>
<path d="M127.42 0.162598H125.9V38.1626H127.42V0.162598Z" fill="#4CD46B" fill-opacity="0.25"/>
<path d="M131.22 0.162598H130.46V38.1626H131.22V0.162598Z" fill="#4CD46B" fill-opacity="0.25"/>
<path d="M132.74 0.162598H131.98V38.1626H132.74V0.162598Z" fill="#4CD46B" fill-opacity="0.25"/>
<path d="M135.78 0.162598H134.26V38.1626H135.78V0.162598Z" fill="#4CD46B" fill-opacity="0.25"/>
<path d="M139.58 0.162598H138.82V38.1626H139.58V0.162598Z" fill="#4CD46B" fill-opacity="0.25"/>
<path d="M141.86 0.162598H141.1V38.1626H141.86V0.162598Z" fill="#4CD46B" fill-opacity="0.25"/>
<path d="M143.38 0.162598H142.62V38.1626H143.38V0.162598Z" fill="#4CD46B" fill-opacity="0.25"/>
<path d="M145.66 0.162598H144.14V38.1626H145.66V0.162598Z" fill="#4CD46B" fill-opacity="0.25"/>
<path d="M147.94 0.162598H147.18V38.1626H147.94V0.162598Z" fill="#4CD46B" fill-opacity="0.25"/>
<path d="M151.74 0.162598H150.98V38.1626H151.74V0.162598Z" fill="#4CD46B" fill-opacity="0.25"/>
<path d="M155.54 0.162598H154.78V38.1626H155.54V0.162598Z" fill="#4CD46B" fill-opacity="0.25"/>
<path d="M158.58 0.162598H157.06V38.1626H158.58V0.162598Z" fill="#4CD46B" fill-opacity="0.25"/>
<path d="M160.1 0.162598H159.34V38.1626H160.1V0.162598Z" fill="#4CD46B" fill-opacity="0.25"/>
<path d="M164.66 0.162598H163.14V38.1626H164.66V0.162598Z" fill="#4CD46B" fill-opacity="0.25"/>
<path d="M166.18 0.162598H165.42V38.1626H166.18V0.162598Z" fill="#4CD46B" fill-opacity="0.25"/>
<path d="M169.22 0.162598H167.7V38.1626H169.22V0.162598Z" fill="#4CD46B" fill-opacity="0.25"/>
<path d="M173.02 0.162598H172.26V38.1626H173.02V0.162598Z" fill="#4CD46B" fill-opacity="0.25"/>
<path d="M174.54 0.162598H173.78V38.1626H174.54V0.162598Z" fill="#4CD46B" fill-opacity="0.25"/>
<path d="M176.82 0.162598H176.06V38.1626H176.82V0.162598Z" fill="#4CD46B" fill-opacity="0.25"/>
<path d="M179.86 0.162598H178.34V38.1626H179.86V0.162598Z" fill="#4CD46B" fill-opacity="0.25"/>
<path d="M183.66 0.162598H181.38V38.1626H183.66V0.162598Z" fill="#4CD46B" fill-opacity="0.25"/>
<path d="M185.18 0.162598H184.42V38.1626H185.18V0.162598Z" fill="#4CD46B" fill-opacity="0.25"/>
<path d="M188.98 0.162598H188.22V38.1626H188.98V0.162598Z" fill="#4CD46B" fill-opacity="0.25"/>
<path d="M191.26 0.162598H189.74V38.1626H191.26V0.162598Z" fill="#4CD46B" fill-opacity="0.25"/>
<path d="M193.54 0.162598H192.78V38.1626H193.54V0.162598Z" fill="#4CD46B" fill-opacity="0.25"/>
<path d="M198.86 0.162598H195.82V38.1626H198.86V0.162598Z" fill="#4CD46B" fill-opacity="0.25"/>
<path d="M200.38 0.162598H199.62V38.1626H200.38V0.162598Z" fill="#4CD46B" fill-opacity="0.25"/>
<path d="M204.18 0.162598H201.14V38.1626H204.18V0.162598Z" fill="#4CD46B" fill-opacity="0.25"/>
<path d="M207.22 0.162598H204.94V38.1626H207.22V0.162598Z" fill="#4CD46B" fill-opacity="0.25"/>
<path d="M208.74 0.162598H207.98V38.1626H208.74V0.162598Z" fill="#4CD46B" fill-opacity="0.25"/>
<path d="M210.26 0.162598H209.5V38.1626H210.26V0.162598Z" fill="#4CD46B" fill-opacity="0.25"/>
<path d="M213.3 0.162598H211.02V38.1626H213.3V0.162598Z" fill="#4CD46B" fill-opacity="0.25"/>
<path d="M216.34 0.162598H214.82V38.1626H216.34V0.162598Z" fill="#4CD46B" fill-opacity="0.25"/>
<path d="M218.62 0.162598H217.86V38.1626H218.62V0.162598Z" fill="#4CD46B" fill-opacity="0.25"/>
<path d="M223.18 0.162598H221.66V38.1626H223.18V0.162598Z" fill="#4CD46B" fill-opacity="0.25"/>
<path d="M224.7 0.162598H223.94V38.1626H224.7V0.162598Z" fill="#4CD46B" fill-opacity="0.25"/>
<path d="M227.74 0.162598H226.22V38.1626H227.74V0.162598Z" fill="#4CD46B" fill-opacity="0.25"/>
<path d="M231.54 0.162598H230.78V38.1626H231.54V0.162598Z" fill="#4CD46B" fill-opacity="0.25"/>
<path d="M233.06 0.162598H232.3V38.1626H233.06V0.162598Z" fill="#4CD46B" fill-opacity="0.25"/>
<path d="M235.34 0.162598H234.58V38.1626H235.34V0.162598Z" fill="#4CD46B" fill-opacity="0.25"/>
<path d="M238.38 0.162598H236.1V38.1626H238.38V0.162598Z" fill="#4CD46B" fill-opacity="0.25"/>
<path d="M241.42 0.162598H239.9V38.1626H241.42V0.162598Z" fill="#4CD46B" fill-opacity="0.25"/>
<path d="M244.46 0.162598H242.94V38.1626H244.46V0.162598Z" fill="#4CD46B" fill-opacity="0.25"/>
<path d="M246.74 0.162598H245.98V38.1626H246.74V0.162598Z" fill="#4CD46B" fill-opacity="0.25"/>
<path d="M248.26 0.162598H247.5V38.1626H248.26V0.162598Z" fill="#4CD46B" fill-opacity="0.25"/>
<path d="M252.06 0.162598H251.3V38.1626H252.06V0.162598Z" fill="#4CD46B" fill-opacity="0.25"/>
<path d="M254.34 0.162598H253.58V38.1626H254.34V0.162598Z" fill="#4CD46B" fill-opacity="0.25"/>
<path d="M256.62 0.162598H255.1V38.1626H256.62V0.162598Z" fill="#4CD46B" fill-opacity="0.25"/>
<path d="M261.18 0.162598H259.66V38.1626H261.18V0.162598Z" fill="#4CD46B" fill-opacity="0.25"/>
<path d="M264.98 0.162598H264.22V38.1626H264.98V0.162598Z" fill="#4CD46B" fill-opacity="0.25"/>
<path d="M266.5 0.162598H265.74V38.1626H266.5V0.162598Z" fill="#4CD46B" fill-opacity="0.25"/>
<path d="M269.54 0.162598H268.02V38.1626H269.54V0.162598Z" fill="#4CD46B" fill-opacity="0.25"/>
<path d="M273.34 0.162598H272.58V38.1626H273.34V0.162598Z" fill="#4CD46B" fill-opacity="0.25"/>
<path d="M274.86 0.162598H274.1V38.1626H274.86V0.162598Z" fill="#4CD46B" fill-opacity="0.25"/>
<path d="M277.14 0.162598H276.38V38.1626H277.14V0.162598Z" fill="#4CD46B" fill-opacity="0.25"/>
<path d="M279.42 0.162598H278.66V38.1626H279.42V0.162598Z" fill="#4CD46B" fill-opacity="0.25"/>
<path d="M281.7 0.162598H280.18V38.1626H281.7V0.162598Z" fill="#4CD46B" fill-opacity="0.25"/>
<path d="M287.78 0.162598H284.74V38.1626H287.78V0.162598Z" fill="#4CD46B" fill-opacity="0.25"/>
<path d="M289.3 0.162598H288.54V38.1626H289.3V0.162598Z" fill="#4CD46B" fill-opacity="0.25"/>
<path d="M291.58 0.162598H290.82V38.1626H291.58V0.162598Z" fill="#4CD46B" fill-opacity="0.25"/>
<path d="M293.86 0.162598H293.1V38.1626H293.86V0.162598Z" fill="#4CD46B" fill-opacity="0.25"/>
<path d="M298.42 0.162598H296.9V38.1626H298.42V0.162598Z" fill="#4CD46B" fill-opacity="0.25"/>
<path d="M299.94 0.162598H299.18V38.1626H299.94V0.162598Z" fill="#4CD46B" fill-opacity="0.25"/>
<path d="M302.22 0.162598H301.46V38.1626H302.22V0.162598Z" fill="#4CD46B" fill-opacity="0.25"/>
<path d="M304.5 0.162598H302.98V38.1626H304.5V0.162598Z" fill="#4CD46B" fill-opacity="0.25"/>
<path d="M306.78 0.162598H306.02V38.1626H306.78V0.162598Z" fill="#4CD46B" fill-opacity="0.25"/>
<path d="M310.58 0.162598H309.82V38.1626H310.58V0.162598Z" fill="#4CD46B" fill-opacity="0.25"/>
<path d="M315.14 0.162598H313.62V38.1626H315.14V0.162598Z" fill="#4CD46B" fill-opacity="0.25"/>
<path d="M316.66 0.162598H315.9V38.1626H316.66V0.162598Z" fill="#4CD46B" fill-opacity="0.25"/>
<path d="M318.94 0.162598H318.18V38.1626H318.94V0.162598Z" fill="#4CD46B" fill-opacity="0.25"/>
<path d="M321.22 0.162598H320.46V38.1626H321.22V0.162598Z" fill="#4CD46B" fill-opacity="0.25"/>
<path d="M325.78 0.162598H322.74V38.1626H325.78V0.162598Z" fill="#4CD46B" fill-opacity="0.25"/>
<path d="M327.3 0.162598H326.54V38.1626H327.3V0.162598Z" fill="#4CD46B" fill-opacity="0.25"/>
<path d="M329.58 0.162598H328.82V38.1626H329.58V0.162598Z" fill="#4CD46B" fill-opacity="0.25"/>
<path d="M331.86 0.162598H330.34V38.1626H331.86V0.162598Z" fill="#4CD46B" fill-opacity="0.25"/>
<path d="M335.66 0.162598H334.9V38.1626H335.66V0.162598Z" fill="#4CD46B" fill-opacity="0.25"/>
<path d="M338.7 0.162598H336.42V38.1626H338.7V0.162598Z" fill="#4CD46B" fill-opacity="0.25"/>
<path d="M341.74 0.162598H340.22V38.1626H341.74V0.162598Z" fill="#4CD46B" fill-opacity="0.25"/>
<path d="M344.02 0.162598H343.26V38.1626H344.02V0.162598Z" fill="#4CD46B" fill-opacity="0.25"/>
<path d="M347.82 0.162598H346.3V38.1626H347.82V0.162598Z" fill="#4CD46B" fill-opacity="0.25"/>
<path d="M350.86 0.162598H348.58V38.1626H350.86V0.162598Z" fill="#4CD46B" fill-opacity="0.25"/>
<path d="M353.14 0.162598H351.62V38.1626H353.14V0.162598Z" fill="#4CD46B" fill-opacity="0.25"/>
<path d="M357.7 0.162598H355.42V38.1626H357.7V0.162598Z" fill="#4CD46B" fill-opacity="0.25"/>
<path d="M359.22 0.162598H358.46V38.1626H359.22V0.162598Z" fill="#4CD46B" fill-opacity="0.25"/>
<path d="M361.5 0.162598H359.98V38.1626H361.5V0.162598Z" fill="#4CD46B" fill-opacity="0.25"/>
</svg>
