<svg width="29" height="30" viewBox="0 0 29 30" fill="none" xmlns="http://www.w3.org/2000/svg">
<path fill-rule="evenodd" clip-rule="evenodd" d="M14.4312 3.19995C7.8204 3.19995 2.4624 8.55795 2.4624 15.1688C2.4624 20.456 5.8908 24.9428 10.6476 26.5268C11.2464 26.6348 11.4624 26.2664 11.4624 25.9496C11.4624 25.6652 11.4528 24.9116 11.4492 23.9144C8.1192 24.6368 7.416 22.3088 7.416 22.3088C6.8736 20.9264 6.0876 20.558 6.0876 20.558C5.0016 19.8152 6.1704 19.832 6.1704 19.832C7.3728 19.916 8.0028 21.0656 8.0028 21.0656C9.0708 22.8944 10.806 22.3664 11.4852 22.0604C11.5944 21.2864 11.9064 20.7584 12.2472 20.4596C9.5904 20.1584 6.7968 19.1312 6.7968 14.5436C6.7968 13.2392 7.2636 12.1688 8.0256 11.3336C7.9044 11.03 7.4904 9.81195 8.1444 8.16555C8.1444 8.16555 9.1488 7.84275 11.4348 9.39075C12.4111 9.12516 13.4182 8.98959 14.43 8.98755C15.4418 8.98919 16.449 9.12477 17.4252 9.39075C19.7124 7.84155 20.7156 8.16555 20.7156 8.16555C21.3696 9.81195 20.9592 11.03 20.8344 11.3336C21.6024 12.1688 22.0632 13.238 22.0632 14.5436C22.0632 19.1432 19.2672 20.1536 16.6008 20.45C17.0268 20.8196 17.4108 21.5492 17.4108 22.6652C17.4108 24.266 17.3964 25.5572 17.3964 25.9496C17.3964 26.27 17.61 26.642 18.2208 26.5244C22.9752 24.938 26.4 20.4548 26.4 15.1688C26.4 8.55795 21.042 3.19995 14.4312 3.19995Z" fill="#00CC99"/>
</svg>
