<svg width="29" height="29" viewBox="0 0 29 29" fill="none" xmlns="http://www.w3.org/2000/svg">
<path d="M5.9796 8.63645C7.42968 8.63645 8.6052 7.46093 8.6052 6.01085C8.6052 4.56077 7.42968 3.38525 5.9796 3.38525C4.52952 3.38525 3.354 4.56077 3.354 6.01085C3.354 7.46093 4.52952 8.63645 5.9796 8.63645Z" fill="#00CC99"/>
<path d="M11.0843 10.6259V25.1927H15.6071V17.9891C15.6071 16.0883 15.9647 14.2475 18.3215 14.2475C20.6459 14.2475 20.6747 16.4207 20.6747 18.1091V25.1939H25.1999V17.2055C25.1999 13.2815 24.3551 10.2659 19.7687 10.2659C17.5667 10.2659 16.0907 11.4743 15.4871 12.6179H15.4259V10.6259H11.0843ZM3.71387 10.6259H8.24387V25.1927H3.71387V10.6259Z" fill="#00CC99"/>
</svg>
