<svg width="24" height="24" viewBox="0 0 24 24" fill="none" xmlns="http://www.w3.org/2000/svg">
<path d="M21.555 8.16806L12.555 2.16806C12.3908 2.05863 12.1978 2.00024 12.0005 2.00024C11.8032 2.00024 11.6102 2.05863 11.446 2.16806L2.446 8.16806C2.30932 8.25943 2.19742 8.38324 2.12029 8.52843C2.04316 8.67362 2.0032 8.83566 2.004 9.00006H2V20.0001C2 20.5305 2.21071 21.0392 2.58579 21.4143C2.96086 21.7893 3.46957 22.0001 4 22.0001H20C20.5304 22.0001 21.0391 21.7893 21.4142 21.4143C21.7893 21.0392 22 20.5305 22 20.0001V9.00006H21.996C21.9967 8.83578 21.9569 8.67387 21.8799 8.52872C21.803 8.38356 21.6914 8.25967 21.555 8.16806ZM20 12.7001L12 17.0001L4 12.7001V10.2971L12 14.5961L20 10.2971V12.7001Z" fill="#00CC99"/>
</svg>
