<svg width="9" height="9" viewBox="0 0 9 9" fill="none" xmlns="http://www.w3.org/2000/svg">
<g clip-path="url(#clip0_439_26469)">
<path d="M5.46036 1.52856V2.83019C5.46036 3.0028 5.52893 3.16833 5.65098 3.29038C5.77303 3.41244 5.93857 3.481 6.11118 3.481H7.4128M4.80955 6.73507V4.78263M4.80955 6.73507L3.83333 5.75885M4.80955 6.73507L5.78577 5.75885M5.78577 1.52856H2.85711C2.68451 1.52856 2.51897 1.59713 2.39692 1.71918C2.27487 1.84123 2.2063 2.00677 2.2063 2.17938V7.38588C2.2063 7.55849 2.27487 7.72402 2.39692 7.84608C2.51897 7.96813 2.68451 8.03669 2.85711 8.03669H6.76199C6.9346 8.03669 7.10013 7.96813 7.22218 7.84608C7.34423 7.72402 7.4128 7.55849 7.4128 7.38588V3.1556L5.78577 1.52856Z" stroke="#00CC99" stroke-width="0.650813" stroke-linecap="round" stroke-linejoin="round"/>
</g>
<defs>
<clipPath id="clip0_439_26469">
<rect width="7.80976" height="7.80976" fill="white" transform="translate(0.904785 0.962402)"/>
</clipPath>
</defs>
</svg>
