<svg width="401" height="84" viewBox="0 0 401 84" fill="none" xmlns="http://www.w3.org/2000/svg">
<path d="M309.078 42.0159L308.896 41.8331L308.971 41.758L309.078 41.758L309.078 42.0159ZM285.248 65.7483L285.43 65.9311L285.355 66.0063L285.248 66.0063L285.248 65.7483ZM56.7911 73.4872L56.6087 73.3048L56.6842 73.2293L56.7911 73.2293L56.7911 73.4872ZM47.2252 83.0531L47.2252 80.9469L49.3314 80.9469L49.3314 83.0531L47.2252 83.0531ZM69.6892 57.8548L69.6892 57.5969L69.7583 57.5969L69.8182 57.6314L69.6892 57.8548ZM9.58414 57.8548L9.58414 58.1128L9.47729 58.1128L9.40173 58.0372L9.58414 57.8548ZM0.946874 49.2175L3.05312 49.2175L3.05312 51.3238L0.946874 51.3238L0.946874 49.2175ZM83.3611 73.4872L83.6191 73.4872L83.6191 73.7452L83.3611 73.7452L83.3611 73.4872ZM359.535 42.0159L359.717 42.1983L359.642 42.2739L359.535 42.2739L359.535 42.0159ZM309.078 42.0159L309.26 42.1987L285.43 65.9311L285.248 65.7483L285.066 65.5656L308.896 41.8331L309.078 42.0159ZM56.7911 73.4872L56.9735 73.6696L48.4607 82.1824L48.2783 82L48.0959 81.8176L56.6087 73.3048L56.7911 73.4872ZM285.248 65.7483L285.248 66.0063L83.3611 66.0063L83.3611 65.7483L83.3611 65.4904L285.248 65.4904L285.248 65.7483ZM83.3611 65.7483L83.2322 65.9717L69.5602 58.0782L69.6892 57.8548L69.8182 57.6314L83.4901 65.5249L83.3611 65.7483ZM69.6892 57.8548L69.6892 58.1128L9.58414 58.1128L9.58414 57.8548L9.58414 57.5969L69.6892 57.5969L69.6892 57.8548ZM9.58414 57.8548L9.40173 58.0372L1.81759 50.4531L2 50.2707L2.1824 50.0883L9.76655 57.6724L9.58414 57.8548ZM83.3611 65.7483L83.6191 65.7483L83.6191 73.4872L83.3611 73.4872L83.1032 73.4872L83.1032 65.7483L83.3611 65.7483ZM83.3611 73.4872L83.3611 73.7452L56.7911 73.7452L56.7911 73.4872L56.7911 73.2293L83.3611 73.2293L83.3611 73.4872ZM309.078 42.0159L309.078 41.758L359.535 41.758L359.535 42.0159L359.535 42.2739L309.078 42.2739L309.078 42.0159ZM359.535 42.0159L359.352 41.8335L400.368 0.817611L400.551 1.00002L400.733 1.18242L359.717 42.1983L359.535 42.0159Z" fill="#840F33"/>
</svg>
