<svg width="11" height="11" viewBox="0 0 11 11" fill="none" xmlns="http://www.w3.org/2000/svg">
<path d="M0.821777 0.507446H10.7475V10.4332H0.821777V0.507446ZM3.43004 8.80094C3.65061 9.26965 4.08624 9.65565 4.83067 9.65565C5.65781 9.65565 6.22578 9.21451 6.22578 8.24951V5.06225H5.28835V8.22745C5.28835 8.70168 5.09535 8.82299 4.79207 8.82299C4.47224 8.82299 4.33989 8.60242 4.19101 8.34325L3.43004 8.80094ZM6.72758 8.70168C7.0033 9.24208 7.56024 9.65565 8.4315 9.65565C9.31378 9.65565 9.9755 9.19797 9.9755 8.35428C9.9755 7.57676 9.52884 7.22936 8.73478 6.88748L8.50318 6.78822C8.10064 6.61728 7.9297 6.50148 7.9297 6.22576C7.9297 5.99968 8.10064 5.82322 8.37635 5.82322C8.64104 5.82322 8.8175 5.93902 8.97741 6.22576L9.69978 5.74602C9.3965 5.21665 8.96638 5.01262 8.37635 5.01262C7.5437 5.01262 7.00881 5.54199 7.00881 6.24231C7.00881 7.00328 7.45547 7.36171 8.12821 7.64845L8.35981 7.74771C8.78993 7.93519 9.04358 8.05099 9.04358 8.37082C9.04358 8.63551 8.79544 8.82851 8.40944 8.82851C7.95175 8.82851 7.68707 8.59139 7.48855 8.26054L6.72758 8.70168Z" fill="white"/>
</svg>
