<svg width="20" height="20" viewBox="0 0 20 20" fill="none" xmlns="http://www.w3.org/2000/svg">
<path d="M0.101562 0.975098H19.1016V19.9751H0.101562V0.975098ZM5.09434 16.8507C5.51656 17.7479 6.35045 18.4868 7.77545 18.4868C9.35879 18.4868 10.446 17.6423 10.446 15.7951V9.69399H8.65156V15.7529C8.65156 16.6607 8.28212 16.8929 7.70156 16.8929C7.08934 16.8929 6.83601 16.4707 6.55101 15.9745L5.09434 16.8507ZM11.4066 16.6607C11.9343 17.6951 13.0005 18.4868 14.6682 18.4868C16.3571 18.4868 17.6238 17.6107 17.6238 15.9957C17.6238 14.5073 16.7688 13.8423 15.2488 13.1879L14.8055 12.9979C14.0349 12.6707 13.7077 12.449 13.7077 11.9212C13.7077 11.4884 14.0349 11.1507 14.5627 11.1507C15.0693 11.1507 15.4071 11.3723 15.7132 11.9212L17.096 11.0029C16.5155 9.98954 15.6921 9.59899 14.5627 9.59899C12.9688 9.59899 11.9449 10.6123 11.9449 11.9529C11.9449 13.4095 12.7999 14.0957 14.0877 14.6445L14.531 14.8345C15.3543 15.1934 15.8399 15.4151 15.8399 16.0273C15.8399 16.534 15.3649 16.9034 14.626 16.9034C13.7499 16.9034 13.2432 16.4495 12.8632 15.8162L11.4066 16.6607Z" fill="#F8392C"/>
</svg>
