<svg width="50" height="50" viewBox="0 0 50 50" fill="none" xmlns="http://www.w3.org/2000/svg">
<rect width="50" height="50" fill="#C52222"/>
<path d="M21.4461 30.6386C21.6805 30.6386 21.873 30.5633 22.0237 30.4042C22.1743 30.2536 22.2497 30.061 22.2497 29.835V27.6921H24.786V27.9432C24.786 28.3618 24.7023 28.705 24.5433 28.9645C24.3759 29.2156 24.1247 29.5002 23.7899 29.8267L21.4293 32.1872C21.2117 32.4049 21.0192 32.589 20.835 32.7397C20.6592 32.882 20.4667 32.9992 20.2742 33.0662C20.0733 33.1415 19.8389 33.175 19.5543 33.175H10.6477C10.2292 33.175 9.88599 33.0913 9.62649 32.9322C9.37537 32.7648 9.09076 32.5221 8.7643 32.1872L6.40373 29.8267C6.18609 29.6006 6.00193 29.4081 5.85125 29.224C5.70895 29.0482 5.60013 28.8556 5.52479 28.6631C5.44945 28.4622 5.41597 28.2278 5.41597 27.9432V20.4932H7.95233V29.835C7.95233 30.061 8.02766 30.2536 8.17834 30.4042C8.32901 30.5633 8.52154 30.6386 8.75593 30.6386H21.4461Z" fill="black"/>
<path d="M11.686 29.477V22.027C11.686 21.6084 11.7697 21.2652 11.9287 21.0141C12.0962 20.7546 12.3473 20.47 12.6737 20.1519L15.0343 17.783C15.2603 17.5653 15.4529 17.3812 15.637 17.2305C15.8128 17.0882 16.0053 16.9794 16.1979 16.904C16.3988 16.8287 16.6331 16.7952 16.9177 16.7952H31.0561V29.477H28.5197V24.2703L27.6994 25.0823C27.4817 25.3083 27.2892 25.4925 27.105 25.6348C26.9292 25.7855 26.7367 25.8943 26.5442 25.9696C26.3433 26.0366 26.1089 26.0784 25.8243 26.0784H14.2223V29.477H11.686ZM27.7161 23.5421C28.1681 23.5421 28.436 23.2826 28.5197 22.7803V19.3316H15.0259C14.7916 19.3316 14.599 19.4069 14.4484 19.5659C14.2977 19.7166 14.2223 19.9091 14.2223 20.1352V23.5421H27.7161Z" fill="black"/>
<path d="M25.03 34.9433V27.4933C25.03 27.0747 25.1137 26.7315 25.2727 26.472C25.4402 26.2209 25.6829 25.9363 26.0177 25.6098L28.3867 23.2576C28.6043 23.0316 28.7969 22.8475 28.981 22.6968C29.1568 22.5545 29.3493 22.4457 29.5419 22.3703C29.7428 22.295 29.9771 22.2615 30.2617 22.2615H38.3312V31.6033C38.3312 31.8377 38.4065 32.0302 38.5656 32.1809C38.7163 32.3316 38.9088 32.4069 39.1348 32.4069H41.8721V22.2615H44.4084V34.9433H41.0266C40.6081 34.9433 40.2649 34.8596 40.0054 34.7005C39.7542 34.5331 39.4613 34.2904 39.1432 33.9555L36.7826 31.595C36.565 31.3773 36.3808 31.1764 36.2301 30.9923C36.0878 30.8165 35.9706 30.6239 35.9037 30.4314C35.8283 30.2305 35.7949 29.9961 35.7949 29.7115V24.7979H28.3699C28.1439 24.7979 27.9514 24.8732 27.8007 25.0239C27.6417 25.1745 27.5663 25.3671 27.5663 25.6015V34.9433H25.03Z" fill="black"/>
</svg>
