<svg width="287" height="85" viewBox="0 0 287 85" fill="none" xmlns="http://www.w3.org/2000/svg">
<path fill-rule="evenodd" clip-rule="evenodd" d="M85.1286 64.111C86.3733 64.111 87.3957 63.6349 88.1959 62.6299C88.5863 62.1653 88.8815 61.6377 89.0814 61.0534V33.0605C89.0814 30.4157 89.5259 28.2469 90.3706 26.66C91.2596 25.0202 92.5932 23.2217 94.3269 21.2116L106.863 6.24183C108.063 4.86651 109.085 3.70278 110.063 2.75064C110.997 1.85139 112.019 1.16373 113.042 0.687659C114.109 0.211587 115.353 0 116.865 0H191.947V14.7467L199.1 6.29472C200.256 4.86651 201.279 3.70278 202.257 2.75064C203.19 1.85139 204.213 1.16373 205.235 0.687659C206.302 0.211587 207.547 0 209.058 0H251.911V59.0329C251.911 60.514 252.311 61.7306 253.156 62.6828C253.956 63.6349 254.979 64.111 256.179 64.111H270.715V0H284.185V80.1387H266.225C264.003 80.1387 262.18 79.6097 260.802 78.6047C259.468 77.5468 257.912 76.0128 256.223 73.8969L243.687 58.98C242.532 57.6047 241.554 56.3351 240.753 55.1714C239.998 54.0606 239.375 52.8439 239.02 51.6273C238.62 50.3578 238.442 48.8767 238.442 47.0782V16.0277H199.012C197.811 16.0277 196.789 16.5038 195.989 17.456C195.144 18.4081 194.744 19.6247 194.744 21.1058V80.1387H178.478V47.2369L174.121 52.3679C172.965 53.7961 171.943 54.9598 170.965 55.8591C170.031 56.8112 169.009 57.4989 167.986 57.9749C166.92 58.3981 165.675 58.6626 164.163 58.6626H102.551V80.1387H89.0814V69.0875L85.0397 73.8969C83.8839 75.2722 82.8615 76.4359 81.8835 77.3881C80.95 78.2873 79.9275 79.0279 78.9051 79.451C77.8382 79.9271 76.5935 80.1387 75.0821 80.1387H27.7835C25.5608 80.1387 23.7382 79.6097 22.3601 78.6047C21.0265 77.5468 19.5151 76.0128 17.7814 73.8969L5.24552 58.98C4.08973 57.5518 3.11175 56.3351 2.31159 55.1714C1.55587 54.0606 0.977978 52.8439 0.577896 51.6273C0.177814 50.3578 0 48.8767 0 47.0782V0H13.4694V59.0329C13.4694 60.4611 13.8695 61.6777 14.6697 62.6299C15.4698 63.6349 16.4923 64.111 17.737 64.111H85.1286ZM178.478 37.8212C178.033 40.995 176.61 42.6348 174.21 42.6348H102.551V21.1058C102.551 19.6776 102.951 18.461 103.751 17.5089C104.551 16.5038 105.574 16.0277 106.818 16.0277H178.478V37.8212Z" fill="#840F33"/>
<path d="M15.7422 3.40427V62.8945C15.7422 64.1502 16.0705 65.2014 16.7041 66.0332L16.835 66.1972L16.8428 66.206C17.555 67.1005 18.4454 67.5146 19.5527 67.5146H86.9443C88.0515 67.5145 88.9412 67.1005 89.6533 66.206L89.6611 66.1972C89.9993 65.7949 90.258 65.3388 90.4395 64.833V36.9218C90.4395 34.2329 90.8904 31.9823 91.7822 30.3066L91.7842 30.3037C92.6956 28.6226 94.0527 26.7955 95.7959 24.7744L108.327 9.80954L108.334 9.8027C109.532 8.4305 110.566 7.25162 111.56 6.28415L111.562 6.2822C112.531 5.34847 113.595 4.6324 114.664 4.13474L114.671 4.13083C115.814 3.62063 117.128 3.40427 118.681 3.40427H194.22V17.3593L200.566 9.86032C201.725 8.42882 202.759 7.25228 203.753 6.28415L203.755 6.2822C204.724 5.34847 205.789 4.63239 206.857 4.13474L206.864 4.13083C208.008 3.62073 209.321 3.4043 210.873 3.40427H254.185V62.8945C254.185 64.2887 254.558 65.389 255.313 66.2402L255.321 66.25C256.036 67.1007 256.932 67.5146 257.994 67.5146H272.073V3.40427H286.457V84.457H268.041C265.747 84.457 263.822 83.9114 262.348 82.8359L262.341 82.83L262.333 82.8242C260.97 81.7426 259.392 80.1857 257.688 78.0527L245.152 63.1357C243.99 61.7521 243.003 60.4705 242.192 59.292L242.19 59.29C241.416 58.1521 240.771 56.8951 240.398 55.625V55.6259C239.98 54.297 239.8 52.7656 239.8 50.9394V20.3466H200.827C199.765 20.3466 198.869 20.7606 198.154 21.6113L198.146 21.6211C197.391 22.4723 197.017 23.5725 197.017 24.9668V84.457H179.836V52.3427L176.285 56.5254C175.134 57.9469 174.101 59.1218 173.105 60.04L173.106 60.041C172.133 61.034 171.065 61.7529 169.995 62.2509L169.983 62.2568L169.971 62.2617C168.848 62.7069 167.546 62.9814 165.979 62.9814H104.823V84.457H90.4395V74.2041L87.2051 78.0527C86.0475 79.4301 85.0127 80.6083 84.0176 81.5771L84.0166 81.5791C83.0605 82.5001 81.9943 83.2768 80.9062 83.7295C79.7629 84.2396 78.4499 84.457 76.8975 84.457H29.5986C27.3049 84.457 25.3809 83.9113 23.9062 82.8359L23.8984 82.83L23.8916 82.8242C22.5247 81.7398 20.9912 80.1809 19.2471 78.0527L6.71094 63.1357L6.70508 63.1289C5.5516 61.7035 4.56202 60.4729 3.75 59.292L3.74902 59.29C2.96748 58.1412 2.37132 56.8856 1.95898 55.6318L1.95703 55.6259C1.53825 54.297 1.3584 52.7657 1.3584 50.9394V3.40427H15.7422ZM108.634 20.3466C107.527 20.3467 106.637 20.7608 105.925 21.6552L105.917 21.665L105.916 21.664C105.197 22.5201 104.823 23.6272 104.823 24.9668V46.039H176.025C177.109 46.039 177.935 45.674 178.55 44.9765C179.176 44.2665 179.619 43.1697 179.836 41.6425V20.3466H108.634Z" stroke="#4CD46B" stroke-width="0.914852"/>
</svg>
