<svg width="596" height="352" viewBox="0 0 596 352" fill="none" xmlns="http://www.w3.org/2000/svg">
<path d="M595.604 203.458L592.344 204.331L584.367 218.147V293.689L584.212 293.837L525.893 349.476H233.872L231.485 351.862L228.599 348.976L231.485 346.088L233.872 348.476H525.492L583.367 293.26V217.881L583.435 217.765L591.478 203.832L590.604 200.571L594.548 199.515L595.604 203.458ZM146.002 0.958984V5.04102H142.627L129.192 18.4756H66.7451L3.98535 83.0693V213.534L6.37207 215.921L3.48535 218.808L0.598633 215.921L2.98535 213.534V82.6641L66.1768 17.627L66.3242 17.4756H128.777L141.919 4.33398V0.958984H146.002Z" fill="#840F33"/>
</svg>
