<svg width="45" height="45" viewBox="0 0 45 45" fill="none" xmlns="http://www.w3.org/2000/svg">
<circle cx="21.5" cy="21.5" r="21.5" transform="matrix(1 0 0 -1 1.10156 43.9751)" stroke="#841134" stroke-linecap="round" stroke-linejoin="round"/>
<path d="M16.8958 28.5972L14.5234 30.7739C13.5012 31.7117 11.8518 30.9866 11.8518 29.5994L11.8518 20.8507C11.8518 20.379 12.0607 19.9315 12.4224 19.6286L20.5517 12.821C21.0704 12.3866 21.8604 12.7554 21.8604 13.432L21.8604 14.6599C21.8604 15.1114 21.6689 15.5417 21.3334 15.844L17.939 18.9028C17.6036 19.2051 17.4121 19.6354 17.4121 20.0869L17.4121 27.4227C17.4121 27.8692 17.2248 28.2953 16.8958 28.5972Z" fill="#841134"/>
<path d="M28.3078 28.5972L30.6802 30.7739C31.7024 31.7117 33.3518 30.9866 33.3518 29.5994L33.3518 20.8507C33.3518 20.379 33.1429 19.9315 32.7812 19.6286L24.6519 12.821C24.1332 12.3866 23.3433 12.7554 23.3433 13.432L23.3433 14.6599C23.3433 15.1114 23.5348 15.5417 23.8702 15.844L27.2646 18.9028C27.6 19.2051 27.7915 19.6354 27.7915 20.0869L27.7915 27.4227C27.7915 27.8692 27.9788 28.2953 28.3078 28.5972Z" fill="#841134"/>
<path d="M22.6018 17.5556C21.1687 17.5556 21.119 23.0705 21.119 24.4793C21.119 25.8881 21.1687 24.4794 22.6018 24.4794C24.0348 24.4794 24.0845 25.8881 24.0845 24.4793C24.0845 23.0705 24.0348 17.5556 22.6018 17.5556Z" fill="#841134"/>
</svg>
