<svg width="45" height="45" viewBox="0 0 45 45" fill="none" xmlns="http://www.w3.org/2000/svg">
<circle cx="22.6016" cy="22.4751" r="21.5" fill="#841134" fill-opacity="0.5" stroke="#4CD46B" stroke-linecap="round" stroke-linejoin="round"/>
<path d="M16.8958 16.353L14.5234 14.1763C13.5012 13.2385 11.8518 13.9636 11.8518 15.3508L11.8518 24.0995C11.8518 24.5712 12.0607 25.0187 12.4224 25.3216L20.5517 32.1292C21.0704 32.5636 21.8604 32.1948 21.8604 31.5182L21.8604 30.2903C21.8604 29.8388 21.6689 29.4085 21.3334 29.1062L17.939 26.0474C17.6036 25.7451 17.4121 25.3148 17.4121 24.8633L17.4121 17.5275C17.4121 17.081 17.2248 16.6549 16.8958 16.353Z" fill="#4CD46B"/>
<path d="M28.3078 16.353L30.6802 14.1763C31.7024 13.2385 33.3518 13.9636 33.3518 15.3508L33.3518 24.0995C33.3518 24.5712 33.1429 25.0187 32.7812 25.3216L24.6519 32.1292C24.1332 32.5636 23.3433 32.1948 23.3433 31.5182L23.3433 30.2903C23.3433 29.8388 23.5348 29.4085 23.8702 29.1062L27.2646 26.0474C27.6 25.7451 27.7915 25.3148 27.7915 24.8633L27.7915 17.5275C27.7915 17.081 27.9788 16.6549 28.3078 16.353Z" fill="#4CD46B"/>
<path d="M22.6018 27.3946C21.1687 27.3946 21.119 21.8797 21.119 20.4709C21.119 19.0621 21.1687 20.4708 22.6018 20.4708C24.0348 20.4708 24.0845 19.0621 24.0845 20.4709C24.0845 21.8797 24.0348 27.3946 22.6018 27.3946Z" fill="#4CD46B"/>
</svg>
