<svg width="382" height="46" viewBox="0 0 382 46" fill="none" xmlns="http://www.w3.org/2000/svg">
<path d="M381.027 0.0065918L315.14 45.0328H66.0567L65.9189 44.9378L0.169678 0.00660706L381.027 0.0065918ZM314.82 43.7346L376.91 1.30492H4.28708L66.3768 43.7346H314.82Z" fill="#840F33" fill-opacity="0.47"/>
<path d="M17.1035 10.1713V11.4696H364.092V10.1713H17.1035Z" fill="#840F33" fill-opacity="0.47"/>
<path d="M29.8019 18.8481V20.1462H351.394V18.8481H29.8019Z" fill="#840F33" fill-opacity="0.47"/>
<path d="M40.7674 26.3433V27.6416H340.428V26.3433H40.7674Z" fill="#840F33" fill-opacity="0.47"/>
<path d="M50.3332 32.8791V34.1774H330.862V32.8791H50.3332Z" fill="#840F33" fill-opacity="0.47"/>
<path d="M58.7519 38.6327V39.9312H322.444V38.6327H58.7519Z" fill="#840F33" fill-opacity="0.47"/>
<path d="M36.1159 1.20503L88.5052 44.88L89.1904 43.835L36.8012 0.160034L36.1159 1.20503Z" fill="#840F33" fill-opacity="0.47"/>
<path d="M70.3317 1.12192L111.048 44.8547L111.84 43.9174L71.1236 0.18457L70.3317 1.12192Z" fill="#840F33" fill-opacity="0.47"/>
<path d="M104.511 1.04793L133.604 44.7706L134.525 43.9914L105.433 0.268723L104.511 1.04793Z" fill="#840F33" fill-opacity="0.47"/>
<path d="M138.711 0.915558L156.138 44.6558L157.188 44.1238L139.761 0.383514L138.711 0.915558Z" fill="#840F33" fill-opacity="0.47"/>
<path d="M179.859 44.2889L178.722 44.4787L172.905 0.75087L174.043 0.560883L179.859 44.2889Z" fill="#840F33" fill-opacity="0.47"/>
<path d="M208.29 0.75087L202.474 44.4787L201.336 44.2889L207.153 0.560883L208.29 0.75087Z" fill="#840F33" fill-opacity="0.47"/>
<path d="M223.996 44.1177L225.046 44.6504L242.496 0.922226L241.446 0.389496L223.996 44.1177Z" fill="#840F33" fill-opacity="0.47"/>
<path d="M246.674 43.9942L247.596 44.7732L276.682 1.04504L275.76 0.266068L246.674 43.9942Z" fill="#840F33" fill-opacity="0.47"/>
<path d="M269.354 43.9148L270.146 44.8522L310.866 1.12407L310.074 0.186646L269.354 43.9148Z" fill="#840F33" fill-opacity="0.47"/>
<path d="M292.022 43.8616L292.708 44.906L345.062 1.17783L344.376 0.133469L292.022 43.8616Z" fill="#840F33" fill-opacity="0.47"/>
</svg>
