<svg width="381" height="73" viewBox="0 0 381 73" fill="none" xmlns="http://www.w3.org/2000/svg">
<path d="M380.346 0.231201L315.192 72.7121L65.9569 72.7121L65.7884 72.5253L0.802979 0.231201H380.346ZM314.721 71.4138L377.543 1.52953H3.60609L66.4288 71.4138H314.721Z" fill="#840F33" fill-opacity="0.47"/>
<path d="M17.0798 16.7798V18.0781L364.069 18.0781V16.7797L17.0798 16.7798Z" fill="#840F33" fill-opacity="0.47"/>
<path d="M29.7782 30.9063V32.2045H351.37V30.9063L29.7782 30.9063Z" fill="#840F33" fill-opacity="0.47"/>
<path d="M40.7437 43.104V44.4023H340.404V43.104H40.7437Z" fill="#840F33" fill-opacity="0.47"/>
<path d="M50.3096 53.7469V55.0455H330.838V53.7469L50.3096 53.7469Z" fill="#840F33" fill-opacity="0.47"/>
<path d="M58.7276 63.111V64.4093L322.42 64.4093V63.111L58.7276 63.111Z" fill="#840F33" fill-opacity="0.47"/>
<path d="M89.249 71.6479L88.3644 72.4778L36.0101 1.29478L36.8948 0.465332L89.249 71.6479Z" fill="#840F33" fill-opacity="0.47"/>
<path d="M70.2126 1.23657L110.945 72.4098L111.912 71.7068L71.1788 0.533569L70.2126 1.23657Z" fill="#840F33" fill-opacity="0.47"/>
<path d="M134.56 71.7907L133.515 72.3351L104.429 1.15257L105.474 0.60791L134.56 71.7907Z" fill="#840F33" fill-opacity="0.47"/>
<path d="M157.206 71.8888L156.097 72.2371L138.646 1.05434L139.756 0.706207L157.206 71.8888Z" fill="#840F33" fill-opacity="0.47"/>
<path d="M172.848 0.943344L178.723 72.1201L179.869 71.9998L173.993 0.823074L172.848 0.943344Z" fill="#840F33" fill-opacity="0.47"/>
<path d="M201.308 72.0033L202.454 72.1223L208.271 0.939377L207.125 0.820343L201.308 72.0033Z" fill="#840F33" fill-opacity="0.47"/>
<path d="M242.502 1.05434L225.051 72.2371L223.942 71.8888L241.393 0.706207L242.502 1.05434Z" fill="#840F33" fill-opacity="0.47"/>
<path d="M276.719 1.15257L247.633 72.3351L246.588 71.7907L275.674 0.60791L276.719 1.15257Z" fill="#840F33" fill-opacity="0.47"/>
<path d="M269.243 71.7116L270.209 72.4145L310.929 1.23189L309.963 0.529022L269.243 71.7116Z" fill="#840F33" fill-opacity="0.47"/>
<path d="M345.138 1.2948L292.784 72.4778L291.899 71.6479L344.253 0.465332L345.138 1.2948Z" fill="#840F33" fill-opacity="0.47"/>
</svg>
