<svg width="380" height="97" viewBox="0 0 380 97" fill="none" xmlns="http://www.w3.org/2000/svg">
<path d="M379.643 0L314.787 96.8864L65.4499 96.8864L65.2773 96.6265L0.593872 1.23226e-05L379.643 0ZM314.214 95.588L377.334 1.29832L2.90234 1.29833L66.023 95.588L314.214 95.588Z" fill="#840F33" fill-opacity="0.47"/>
<path d="M16.6234 22.2235V23.5218L363.612 23.5218V22.2235L16.6234 22.2235Z" fill="#840F33" fill-opacity="0.47"/>
<path d="M29.3218 41.1914V42.4899L350.914 42.4899V41.1913L29.3218 41.1914Z" fill="#840F33" fill-opacity="0.47"/>
<path d="M40.2873 57.5726V58.8709L339.948 58.8709V57.5726L40.2873 57.5726Z" fill="#840F33" fill-opacity="0.47"/>
<path d="M49.8531 71.8635V73.1618L330.382 73.1618V71.8635L49.8531 71.8635Z" fill="#840F33" fill-opacity="0.47"/>
<path d="M58.2712 84.4383V85.7366H321.964V84.4383L58.2712 84.4383Z" fill="#840F33" fill-opacity="0.47"/>
<path d="M35.4575 1.02484L87.9084 96.5455L88.8885 95.8613L36.4376 0.34061L35.4575 1.02484Z" fill="#840F33" fill-opacity="0.47"/>
<path d="M111.484 95.9555L110.447 96.5189L69.727 0.931101L70.7635 0.367441L111.484 95.9555Z" fill="#840F33" fill-opacity="0.47"/>
<path d="M134.124 96.0282L133.037 96.4462L103.951 0.858162L105.038 0.440166L134.124 96.0282Z" fill="#840F33" fill-opacity="0.47"/>
<path d="M156.758 96.1073L155.632 96.3668L138.181 0.778773L139.307 0.519108L156.758 96.1073Z" fill="#840F33" fill-opacity="0.47"/>
<path d="M172.422 0.693137L178.234 96.2814L179.382 96.1926L173.57 0.60435L172.422 0.693137Z" fill="#840F33" fill-opacity="0.47"/>
<path d="M200.851 96.1926L202 96.2814L207.816 0.693483L206.667 0.604615L200.851 96.1926Z" fill="#840F33" fill-opacity="0.47"/>
<path d="M242.054 0.778773L224.604 96.3668L223.477 96.1073L240.928 0.519109L242.054 0.778773Z" fill="#840F33" fill-opacity="0.47"/>
<path d="M276.284 0.858163L247.197 96.4462L246.111 96.0282L275.196 0.440168L276.284 0.858163Z" fill="#840F33" fill-opacity="0.47"/>
<path d="M310.508 0.931103L269.788 96.5189L268.751 95.9555L309.472 0.367443L310.508 0.931103Z" fill="#840F33" fill-opacity="0.47"/>
<path d="M291.395 95.8955L292.375 96.5784L344.73 0.990212L343.749 0.307301L291.395 95.8955Z" fill="#840F33" fill-opacity="0.47"/>
</svg>
