<svg width="386" height="22" viewBox="0 0 386 22" fill="none" xmlns="http://www.w3.org/2000/svg">
<path d="M386 0.315186L317.851 21.9526L68.9317 21.9273L0.938354 0.315186H386ZM317.771 20.6543L377.679 1.61349L9.25972 1.61353L69.1675 20.6543H317.771Z" fill="#840F33" fill-opacity="0.47"/>
<path d="M19.9741 5.04303V6.34134H366.963V5.04303H19.9741Z" fill="#840F33" fill-opacity="0.47"/>
<path d="M32.6725 9.08023V10.3788L354.264 10.3787V9.08023H32.6725Z" fill="#840F33" fill-opacity="0.47"/>
<path d="M43.638 12.5637V13.8621L343.298 13.862V12.5637H43.638Z" fill="#840F33" fill-opacity="0.47"/>
<path d="M53.2039 15.6036V16.9019L333.733 16.9019V15.6036H53.2039Z" fill="#840F33" fill-opacity="0.47"/>
<path d="M61.6225 18.2792V19.5775L325.315 19.5775V18.2792H61.6225Z" fill="#840F33" fill-opacity="0.47"/>
<path d="M91.8881 20.689L91.5145 21.9178L39.1602 1.57834L39.5338 0.34967L91.8881 20.689Z" fill="#840F33" fill-opacity="0.47"/>
<path d="M73.3708 1.53687L114.075 21.9153L114.542 20.731L73.8372 0.352509L73.3708 1.53687Z" fill="#840F33" fill-opacity="0.47"/>
<path d="M107.544 1.51233L136.626 21.8584L137.233 20.7563L108.15 0.410187L107.544 1.51233Z" fill="#840F33" fill-opacity="0.47"/>
<path d="M141.689 1.40628L159.126 21.761L159.951 20.8617L142.515 0.507019L141.689 1.40628Z" fill="#840F33" fill-opacity="0.47"/>
<path d="M175.791 1.16656L181.619 21.5017L182.714 21.1026L176.886 0.767456L175.791 1.16656Z" fill="#840F33" fill-opacity="0.47"/>
<path d="M204.228 21.1046L205.323 21.5029L211.14 1.16373L210.044 0.765472L204.228 21.1046Z" fill="#840F33" fill-opacity="0.47"/>
<path d="M226.979 20.8534L227.804 21.7534L245.254 1.41422L244.429 0.514252L226.979 20.8534Z" fill="#840F33" fill-opacity="0.47"/>
<path d="M249.702 20.7524L250.308 21.8546L279.394 1.51526L278.788 0.413086L249.702 20.7524Z" fill="#840F33" fill-opacity="0.47"/>
<path d="M272.388 20.7116L272.853 21.8963L313.573 1.55695L313.107 0.372223L272.388 20.7116Z" fill="#840F33" fill-opacity="0.47"/>
<path d="M347.777 1.57834L295.423 21.9178L295.049 20.689L347.403 0.34967L347.777 1.57834Z" fill="#840F33" fill-opacity="0.47"/>
</svg>
