<svg width="386" height="22" viewBox="0 0 386 22" fill="none" xmlns="http://www.w3.org/2000/svg">
<path d="M385.062 22L316.913 0.362549L67.9933 0.387878L0 22H385.062ZM316.833 1.66086L376.74 20.7017H8.32136L68.2291 1.66086H316.833Z" fill="#840F33" fill-opacity="0.47"/>
<path d="M19.0358 17.2721V15.9738H366.025V17.2722L19.0358 17.2721Z" fill="#840F33" fill-opacity="0.47"/>
<path d="M31.7342 13.2349V11.9364L353.326 11.9364V13.2349H31.7342Z" fill="#840F33" fill-opacity="0.47"/>
<path d="M42.6996 9.75143V8.45309L342.36 8.45312V9.75143H42.6996Z" fill="#840F33" fill-opacity="0.47"/>
<path d="M52.2655 6.71155V5.41324L332.794 5.41327V6.71158L52.2655 6.71155Z" fill="#840F33" fill-opacity="0.47"/>
<path d="M60.6842 4.03598V2.73767H324.377V4.03598H60.6842Z" fill="#840F33" fill-opacity="0.47"/>
<path d="M90.9497 1.62616L90.5761 0.397339L38.2219 20.7368L38.5955 21.9655L90.9497 1.62616Z" fill="#840F33" fill-opacity="0.47"/>
<path d="M72.4325 20.7783L113.137 0.399872L113.603 1.5842L72.8989 21.9627L72.4325 20.7783Z" fill="#840F33" fill-opacity="0.47"/>
<path d="M106.606 20.8029L135.688 0.456787L136.294 1.5589L107.212 21.905L106.606 20.8029Z" fill="#840F33" fill-opacity="0.47"/>
<path d="M140.751 20.9089L158.187 0.554199L159.013 1.45346L141.577 21.8081L140.751 20.9089Z" fill="#840F33" fill-opacity="0.47"/>
<path d="M174.852 21.1486L180.68 0.813507L181.776 1.21262L175.948 21.5477L174.852 21.1486Z" fill="#840F33" fill-opacity="0.47"/>
<path d="M203.29 1.21051L204.385 0.812256L210.202 21.1514L209.106 21.5497L203.29 1.21051Z" fill="#840F33" fill-opacity="0.47"/>
<path d="M226.04 1.46176L226.865 0.561798L244.316 20.901L243.491 21.8009L226.04 1.46176Z" fill="#840F33" fill-opacity="0.47"/>
<path d="M248.763 1.56277L249.37 0.460602L278.456 20.7999L277.849 21.9021L248.763 1.56277Z" fill="#840F33" fill-opacity="0.47"/>
<path d="M271.449 1.60355L271.915 0.418854L312.635 20.7583L312.169 21.9429L271.449 1.60355Z" fill="#840F33" fill-opacity="0.47"/>
<path d="M346.838 20.7368L294.484 0.397339L294.111 1.62616L346.465 21.9655L346.838 20.7368Z" fill="#840F33" fill-opacity="0.47"/>
</svg>
