<svg width="89" height="27" viewBox="0 0 89 27" fill="none" xmlns="http://www.w3.org/2000/svg">
<path d="M88.6645 13.6748C88.2909 14.9827 87.3193 17.4303 86.4225 16.7576C85.3014 15.9169 84.4607 10.5919 81.6581 10.8722C78.8555 11.1524 78.8555 15.9169 76.6134 15.9169C74.3713 15.9169 74.3713 11.9932 72.6898 11.9932C71.0082 11.9932 71.2885 20.1208 68.4859 18.9997C65.6833 17.8787 65.1227 2.46441 62.3202 3.58545C59.5176 4.70648 61.1991 19.8405 58.957 19.8405C56.715 19.8405 53.9124 2.46444 50.8295 2.46444C47.7467 2.46444 44.1033 25.1655 38.7784 25.726C33.4534 26.2865 32.8929 5.54726 30.0903 5.82752C27.2877 6.10778 28.689 18.4392 25.3259 18.4392C21.9628 18.4392 25.3259 -0.338185 20.5615 1.34337C15.7971 3.02493 17.1984 23.2036 12.9945 22.9234C8.7906 22.6431 9.35112 4.14598 7.10904 4.7065C4.86696 5.26702 4.5867 15.6366 0.382812 13.9551" stroke="#F6F6F6" stroke-width="0.560519"/>
<path d="M88.6645 13.6748C88.2909 14.9826 87.3193 17.4302 86.4225 16.7576C85.3014 15.9168 84.4607 9.19063 81.6581 9.47089C78.8555 9.75115 78.8555 15.9168 76.6134 15.9168C74.3713 15.9168 74.3713 15.3563 72.6898 15.3563C71.0082 15.3563 71.2885 20.1207 68.4859 18.9997C65.6833 17.8787 65.1227 2.46438 62.3202 3.58542C59.5176 4.70646 61.1991 19.8405 58.957 19.8405C56.715 19.8405 53.9124 4.70647 50.8295 4.70647C47.7467 4.70647 44.1033 22.9234 38.7784 23.4839C33.4534 24.0444 32.8929 5.54724 30.0903 5.8275C27.2877 6.10776 28.689 19.8405 25.3259 19.8405C21.9628 19.8405 25.3259 1.90382 20.5615 3.58538C15.7971 5.26693 17.6489 21.5221 13.445 21.2418C9.24115 20.9616 9.35112 4.14595 7.10904 4.70647C4.86696 5.26699 4.5867 15.6366 0.382812 13.955" stroke="#F6F6F6" stroke-width="0.560519"/>
</svg>
